HIERARCHY
ROOT SpineBase
{
  OFFSET 0.000000 0.000000 0.000000
  CHANNELS 6 Xposition Yposition Zposition Zrotation Xrotation Yrotation
  JOINT SpineMid
  {
    OFFSET 0.000000 29.536430 0.000000
    CHANNELS 3 Zrotation Xrotation Yrotation
    JOINT SpineShoulder
    {
      OFFSET 0.055293 22.034414 -0.738168
      CHANNELS 3 Zrotation Xrotation Yrotation
      JOINT Neck
      {
        OFFSET 0.018512 7.331149 -0.571429
        CHANNELS 3 Zrotation Xrotation Yrotation
        JOINT Head
        {
          OFFSET 5.217383 12.357580 2.456630
          CHANNELS 3 Zrotation Xrotation Yrotation
          End Site
          {
            OFFSET 0 0 0
          }
        }
      }
      JOINT ShoulderLeft
      {
        OFFSET -8.136342 -2.905944 -13.024935
        CHANNELS 3 Zrotation Xrotation Yrotation
        JOINT ElbowLeft
        {
          OFFSET -5.317452 -23.206218 -8.073537
          CHANNELS 3 Zrotation Xrotation Yrotation
          JOINT WristLeft
          {
            OFFSET 1.466902 -24.428744 -1.213464
            CHANNELS 3 Zrotation Xrotation Yrotation
            JOINT HandLeft
            {
              OFFSET 0.880988 -6.583678 0.639518
              CHANNELS 3 Zrotation Xrotation Yrotation
              JOINT HandTipLeft
              {
                OFFSET 0.880250 -7.454801 0.863919
                CHANNELS 3 Zrotation Xrotation Yrotation
                End Site
                {
                  OFFSET 0 0 0
                }
              }
              JOINT ThumbLeft
              {
                OFFSET 2.860558 2.397470 0.269098
                CHANNELS 3 Zrotation Xrotation Yrotation
                End Site
                {
                  OFFSET 0 0 0
                }
              }
            }
          }
        }
      }
      JOINT ShoulderRight
      {
        OFFSET 9.664409 -6.289529 10.006379
        CHANNELS 3 Zrotation Xrotation Yrotation
        JOINT ElbowRight
        {
          OFFSET 9.196520 -15.237994 -7.778970
          CHANNELS 3 Zrotation Xrotation Yrotation
          JOINT WristRight
          {
            OFFSET -2.568170 -18.537108 -4.520429
            CHANNELS 3 Zrotation Xrotation Yrotation
            JOINT HandRight
            {
              OFFSET -0.517406 -1.276306 0.789703
              CHANNELS 3 Zrotation Xrotation Yrotation
              JOINT HandTipRight
              {
                OFFSET 1.097715 -3.119534 0.212810
                CHANNELS 3 Zrotation Xrotation Yrotation
                End Site
                {
                  OFFSET 0 0 0
                }
              }
              JOINT ThumbRight
              {
                OFFSET -4.639942 -0.926412 0.382292
                CHANNELS 3 Zrotation Xrotation Yrotation
                End Site
                {
                  OFFSET 0 0 0
                }
              }
            }
          }
        }
      }
    }
  }
  JOINT HipLeft
  {
    OFFSET -4.108243 2.264393 -8.140189
    CHANNELS 3 Zrotation Xrotation Yrotation
    JOINT KneeLeft
    {
      OFFSET -8.763468 -26.837777 -6.507734
      CHANNELS 3 Zrotation Xrotation Yrotation
      JOINT AnkleLeft
      {
        OFFSET -6.771327 -38.307751 7.137034
        CHANNELS 3 Zrotation Xrotation Yrotation
        JOINT FootLeft
        {
          OFFSET 7.690433 -3.447580 -9.562618
          CHANNELS 3 Zrotation Xrotation Yrotation
          End Site
          {
            OFFSET 0 0 0
          }
        }
      }
    }
  }
  JOINT HipRight
  {
    OFFSET 4.342843 0.173313 1.428374
    CHANNELS 3 Zrotation Xrotation Yrotation
    JOINT KneeRight
    {
      OFFSET -1.715119 -33.002897 0.336523
      CHANNELS 3 Zrotation Xrotation Yrotation
      JOINT AnkleRight
      {
        OFFSET -7.532525 -32.745537 5.477021
        CHANNELS 3 Zrotation Xrotation Yrotation
        JOINT FootRight
        {
          OFFSET 7.550627 -3.482340 -9.589580
          CHANNELS 3 Zrotation Xrotation Yrotation
          End Site
          {
            OFFSET 0 0 0
          }
        }
      }
    }
  }
}
MOTION
Frames: 16
Frame Time: 0.033333
-6.098629 72.888841 332.522219 -0.000000 0.000000 -48.548618 -0.000000 0.000000 48.548618 -0.000000 0.000000 0.000000 -0.000000 0.000000 0.000000 0.000000 0.000000 0.000000 -0.000000 0.000000 0.000000 -0.000000 0.000000 0.000000 -0.000000 0.000000 0.000000 -0.000000 0.000000 0.000000 0.000000 0.000000 0.000000 0.000000 0.000000 0.000000 -0.000000 0.000000 0.000000 -0.000000 0.000000 0.000000 -0.000000 0.000000 0.000000 -0.000000 0.000000 0.000000 0.000000 0.000000 0.000000 0.000000 0.000000 0.000000 -0.000000 0.000000 48.548618 -0.000000 0.000000 0.000000 -0.000000 0.000000 0.000000 0.000000 0.000000 0.000000 -0.000000 0.000000 48.548618 -0.000000 0.000000 0.000000 -0.000000 0.000000 0.000000 0.000000 0.000000 0.000000
-5.745778 72.953473 332.224338 0.329439 0.270008 -48.691287 -0.014651 -0.425698 48.690456 -0.000000 0.000000 0.000000 -0.000000 0.000000 0.000000 0.000000 0.000000 0.000000 -0.000000 0.000000 0.000000 0.951168 0.172950 -0.038277 -0.951056 -0.173561 0.035401 -0.164423 1.996102 0.220011 0.000000 0.000000 0.000000 0.000000 0.000000 0.000000 -0.000000 0.000000 0.000000 1.304513 2.513216 -0.692368 5.816203 4.576350 2.206042 -3.727106 1.303312 1.149714 0.000000 0.000000 0.000000 0.000000 0.000000 0.000000 -0.014651 -0.425698 48.690456 -0.000000 0.000000 0.000000 -0.000000 0.000000 0.000000 0.000000 0.000000 0.000000 -0.014651 -0.425698 48.690456 -0.000000 0.000000 0.000000 -0.000000 0.000000 0.000000 0.000000 0.000000 0.000000
-5.424362 73.018979 331.925862 0.591469 0.543973 -48.897111 0.021041 -0.803299 48.894451 -0.000000 0.000000 0.000000 -0.000000 0.000000 0.000000 0.000000 0.000000 0.000000 -0.000000 0.000000 0.000000 1.731345 0.310966 -0.071959 -1.730979 -0.312998 0.062532 -0.369738 4.285954 0.479561 0.000000 0.000000 0.000000 0.000000 0.000000 0.000000 -0.000000 0.000000 0.000000 2.707547 4.440931 -1.372397 12.628852 10.097049 4.805663 -8.740703 2.595871 0.545040 0.000000 0.000000 0.000000 0.000000 0.000000 0.000000 0.743433 -1.740943 49.346482 0.240702 1.158804 -0.438427 -0.000000 0.000000 0.000000 0.000000 0.000000 0.000000 -0.597666 -1.402905 48.870058 0.858517 -0.071627 0.013018 -0.000000 0.000000 0.000000 0.000000 0.000000 0.000000
-5.134378 73.085359 331.626791 0.785336 0.821542 -49.165179 0.184392 -0.234563 49.184606 -0.728647 -0.528361 -0.026440 -0.000000 0.000000 0.000000 0.000000 0.000000 0.000000 -0.000000 0.000000 0.000000 2.338649 0.413809 -0.099643 -1.511704 -0.874417 0.110852 -1.444671 7.318186 0.771465 0.000000 0.000000 0.000000 0.000000 0.000000 0.000000 -0.000000 0.000000 0.000000 4.178181 5.751103 -2.012053 21.060154 17.279492 7.459778 -15.634284 2.959010 -2.577546 0.000000 0.000000 0.000000 0.000000 0.000000 0.000000 1.328050 -2.488211 49.847892 0.250200 1.807039 -0.652688 -0.000000 0.000000 0.000000 0.000000 0.000000 0.000000 -0.504082 -2.079525 49.140248 1.117419 0.157353 0.001683 -0.000000 0.000000 0.000000 0.000000 0.000000 0.000000
-4.875829 73.152612 331.327126 0.910467 1.102358 -49.494286 0.235160 -0.280963 49.514996 -0.233913 -0.079248 0.018645 -0.616210 -0.661226 -0.049894 0.000000 0.000000 0.000000 -0.616210 -0.661226 -0.049894 2.768535 0.480653 -0.120103 -1.543371 -0.819207 0.184527 -2.132954 10.031052 1.064955 0.000000 0.000000 0.000000 0.000000 0.000000 0.000000 -0.616210 -0.661226 -0.049894 5.685055 6.432988 -2.581354 31.604937 26.287302 9.410343 -24.615950 2.569645 -8.691064 0.000000 0.000000 0.000000 0.000000 0.000000 0.000000 2.055334 -3.145860 50.417924 0.186097 2.500053 -0.861552 -0.000000 0.000000 0.000000 0.000000 0.000000 0.000000 -0.145631 -2.734864 49.490785 0.482515 0.024707 -0.025206 0.780690 0.539029 0.002920 0.000000 0.000000 0.000000
-4.648713 73.220739 331.026865 0.966467 1.386063 -49.882933 0.280353 -0.310961 49.902842 -0.262869 -0.083692 0.018386 -1.538927 -0.286399 -0.137775 0.000000 0.000000 0.000000 -0.647176 -0.886963 -0.053182 3.013232 0.509957 -0.132265 -1.327626 -0.594278 0.274021 -2.924235 12.834854 1.374533 0.000000 0.000000 0.000000 0.000000 0.000000 0.000000 -0.647176 -0.886963 -0.053182 7.198371 6.493187 -3.050762 44.349374 36.152435 9.512944 -34.918545 2.658652 -17.265785 0.000000 0.000000 0.000000 0.000000 0.000000 0.000000 2.924315 -3.707493 51.055227 -0.879730 3.513062 -1.227849 0.932839 -0.255954 0.221352 0.000000 0.000000 0.000000 0.480811 -3.363249 49.925836 0.139047 0.789293 -0.150453 1.156530 0.361622 0.106918 0.000000 0.000000 0.000000
-4.478586 73.305417 330.631508 0.886866 1.807865 -50.614534 0.378155 -0.314561 50.631645 -0.286022 -0.080900 0.014325 -1.901331 -0.274077 -0.211939 0.000000 0.000000 0.000000 -1.135435 -1.945820 0.285109 3.857213 1.159659 -0.543339 -1.072291 -0.077878 0.403294 -2.881528 15.707912 1.670756 0.000000 0.000000 0.000000 0.000000 0.000000 0.000000 -0.598564 -1.234541 -0.049944 7.641975 6.340100 -3.155249 68.729954 49.408473 1.771971 -49.720010 3.308160 -30.046225 0.000000 0.000000 0.000000 0.000000 0.000000 0.000000 4.291057 -4.270953 52.115172 -1.378965 4.566950 -1.495653 1.181495 -0.314373 0.279306 0.000000 0.000000 0.000000 1.618429 -4.030897 50.745579 -0.287260 1.844057 -0.275765 1.492280 0.161213 0.211111 0.000000 0.000000 0.000000
-4.299073 73.389281 330.310591 0.806664 2.146290 -51.071605 0.431578 -0.317180 51.085719 -0.291119 -0.079502 0.010724 -2.183617 -0.062479 -0.358448 0.000000 0.000000 0.000000 -1.123506 -2.298579 0.313758 3.762628 1.346967 -0.562087 -0.317093 0.491197 0.530334 -3.662926 21.759326 2.382571 0.000000 0.000000 0.000000 0.000000 0.000000 0.000000 0.864321 -3.851569 -2.102839 6.846119 10.147194 -1.877178 105.681323 59.058976 -29.229655 -67.820958 -2.656700 -40.928221 0.000000 0.000000 0.000000 0.000000 0.000000 0.000000 5.534592 -4.646483 52.847446 -1.980878 5.520673 -1.702012 1.466054 -0.385983 0.346884 0.000000 0.000000 0.000000 2.466034 -4.706129 51.280785 -0.521362 2.771336 -0.387473 1.834978 -0.034289 0.316531 0.000000 0.000000 0.000000
-4.146587 73.460764 330.062509 0.679294 2.353755 -51.474946 0.432801 -0.288745 51.485672 -0.271632 -0.068392 0.007039 -2.537733 0.309549 -0.519916 0.000000 0.000000 0.000000 -0.721878 -2.508064 0.216197 2.861710 1.093870 -0.413552 0.657504 1.066620 0.584146 -5.764728 24.242574 2.816386 0.000000 0.000000 0.000000 0.000000 0.000000 0.000000 -0.165127 0.519780 1.185468 12.142665 0.786670 -4.590129 90.742469 55.915553 -8.101890 -58.026141 9.078551 -41.511043 0.000000 0.000000 0.000000 0.000000 0.000000 0.000000 6.608384 -4.798768 53.466886 -2.599638 6.335686 -1.851605 1.752692 -0.449298 0.413672 0.000000 0.000000 0.000000 3.965244 -5.110406 51.838877 -1.731295 4.708235 -0.640625 2.606634 -0.751409 0.628601 0.000000 0.000000 0.000000
-4.016264 73.513955 329.854838 0.533137 2.499291 -51.986430 0.402938 -0.283561 51.992282 -0.257825 -0.051809 0.000422 -2.938229 0.705940 -0.642003 0.000000 0.000000 0.000000 -0.300547 -1.955256 -0.023586 1.398463 -0.245382 -0.081159 3.157331 2.545646 0.724302 -7.944182 23.658321 2.573138 0.000000 0.000000 0.000000 0.000000 0.000000 0.000000 -1.690016 2.763615 3.497037 17.715237 -6.368798 -5.887110 75.002432 51.253385 4.136963 -47.322821 17.920825 -40.434542 0.000000 0.000000 0.000000 0.000000 0.000000 0.000000 7.645458 -4.818243 54.166271 -3.291461 7.134517 -1.974306 2.428206 -0.481671 -0.365834 0.000000 0.000000 0.000000 6.146351 -5.295035 52.580373 -3.752080 7.545955 -0.919385 5.474224 -0.223373 -0.306773 0.000000 0.000000 0.000000
-3.925919 73.539883 329.736553 0.375495 2.529775 -52.351190 0.336002 -0.267239 52.352045 -0.235624 -0.032341 -0.006201 -3.496242 1.204684 -0.732775 0.000000 0.000000 0.000000 0.627701 -2.578771 -0.124751 -0.761889 0.508753 0.151410 4.490007 1.600506 0.585522 -8.439452 25.690457 3.031138 0.000000 0.000000 0.000000 0.000000 0.000000 0.000000 -2.816624 2.698710 4.225017 23.330351 -10.944732 -5.846162 67.977713 50.161815 3.767059 -46.744516 17.740748 -38.973751 0.000000 0.000000 0.000000 0.000000 0.000000 0.000000 8.438164 -4.652538 54.631314 -3.989324 7.775212 -2.036739 2.780991 -0.766507 -0.755665 0.000000 0.000000 0.000000 8.340672 -5.257454 53.170411 -5.905192 10.354532 -1.068378 6.209022 -1.855107 -0.209128 0.000000 0.000000 0.000000
-3.842277 73.569614 329.726657 0.208151 2.367322 -52.598080 0.229023 -0.205843 52.595227 -0.186314 0.003022 -0.009763 -3.889959 1.792671 -0.840163 0.000000 0.000000 0.000000 1.387721 -2.372267 -0.352878 -1.385806 0.299670 0.415577 3.988837 0.872898 0.472177 -9.914375 22.832142 2.839260 0.000000 0.000000 0.000000 0.000000 0.000000 0.000000 -4.762574 -0.310766 3.457330 28.830560 -12.051413 -5.459295 44.432881 41.554760 13.949272 -40.378892 21.121897 -32.273131 0.000000 0.000000 0.000000 0.000000 0.000000 0.000000 8.792807 -4.248456 54.850218 -4.578520 8.079939 -2.020307 3.056756 -1.035502 -1.152619 0.000000 0.000000 0.000000 10.286460 -4.947499 53.591068 -7.992770 12.832377 -1.080477 5.403792 -5.125593 -0.212615 0.000000 0.000000 0.000000
-3.746924 73.564228 329.719260 0.072982 2.193430 -52.803999 0.130182 -0.184417 52.796835 -0.155708 0.034933 -0.014712 -4.265970 2.361847 -0.914348 0.000000 0.000000 0.000000 2.164524 -2.115053 -0.586956 -2.012555 0.080004 0.680409 2.870223 -0.262169 0.249457 -8.913445 23.679610 3.238420 0.000000 0.000000 0.000000 0.000000 0.000000 0.000000 -7.250584 -13.064265 -4.250700 32.538578 -0.889338 -4.635646 23.818819 34.472283 14.296900 -31.551183 9.070189 -22.488496 0.000000 0.000000 0.000000 0.000000 0.000000 0.000000 9.003928 -3.954924 55.047456 -4.975557 8.331902 -2.028511 3.273085 -1.281018 -1.528779 0.000000 0.000000 0.000000 12.063726 -4.626461 53.938050 -9.819280 14.937165 -0.980500 2.776238 -9.833168 0.372322 0.000000 0.000000 0.000000
-3.676915 73.533471 329.642381 -0.083450 2.041171 -53.075522 0.141753 -0.195263 53.066097 -0.133109 0.013544 -0.019400 -4.536738 3.053487 -0.991177 0.000000 0.000000 0.000000 2.862950 -1.830155 -0.784089 -2.573003 -0.030854 0.897135 1.484444 -1.636813 -0.053468 -6.822008 24.003136 3.463693 0.000000 0.000000 0.000000 0.000000 0.000000 0.000000 -11.124741 -17.840910 -6.733346 36.463223 -0.645415 -4.813976 12.995418 34.000635 11.085535 -27.599277 4.979387 -17.289270 0.000000 0.000000 0.000000 0.000000 0.000000 0.000000 9.264240 -3.787436 55.375831 -5.177508 8.678689 -2.090140 3.401338 -1.515469 -1.877893 0.000000 0.000000 0.000000 14.126553 -4.108247 54.333113 -11.843589 16.917072 -0.739762 -3.966515 -18.540373 3.022499 0.000000 0.000000 0.000000
-3.634989 73.467796 329.554232 -0.214518 1.839705 -53.227369 0.195914 -0.215417 53.216816 -0.112677 -0.010668 -0.022364 -4.669535 3.643665 -1.026253 0.000000 0.000000 0.000000 3.379722 -1.658137 -0.898676 -2.238462 0.481175 1.005500 -0.388736 -3.469986 -0.349123 -3.801179 25.125304 3.578143 0.000000 0.000000 0.000000 0.000000 0.000000 0.000000 -15.539649 -17.295776 -4.755846 40.590776 -8.526024 -5.235953 8.976448 42.627160 2.741720 -27.705870 -7.516581 -14.395789 0.000000 0.000000 0.000000 0.000000 0.000000 0.000000 9.423052 -3.601142 55.562107 -5.385274 8.944552 -2.132536 3.526520 -1.713631 -2.216391 0.000000 0.000000 0.000000 15.161771 -3.768068 54.519297 -12.850669 17.814489 -0.551372 -9.685608 -25.490442 4.384676 0.000000 0.000000 0.000000
-3.623751 73.390558 329.433873 -0.354673 1.612370 -53.253021 0.269611 -0.228341 53.241379 -0.091143 -0.030922 -0.024927 -5.048556 4.355728 -1.035808 0.000000 0.000000 0.000000 3.818449 -1.544301 -0.974571 -1.907441 0.710381 1.048894 -1.342932 -4.286127 -0.458431 -1.915842 24.716480 3.329675 0.000000 0.000000 0.000000 0.000000 0.000000 0.000000 -20.751358 -11.775100 2.572512 44.552244 -24.697341 -5.612468 10.196679 53.701485 -7.740547 -30.286930 -16.807440 -13.218498 0.000000 0.000000 0.000000 0.000000 0.000000 0.000000 9.502666 -3.421695 55.613447 -5.496596 9.154476 -2.171900 3.579670 -1.848372 -2.414944 0.000000 0.000000 0.000000 15.203496 -3.730800 54.525575 -12.717313 17.832355 -0.498439 -13.089163 -29.079494 5.078903 0.000000 0.000000 0.000000
